<?xml version="1.0" encoding="utf-8"?>
<!-- Generator: Adobe Illustrator 26.0.2, SVG Export Plug-In . SVG Version: 6.00 Build 0)  -->
<svg version="1.1" id="레이어_1" xmlns="http://www.w3.org/2000/svg" xmlns:xlink="http://www.w3.org/1999/xlink" x="0px"
	 y="0px" viewBox="0 0 456.5 116.4" style="enable-background:new 0 0 456.5 116.4;" xml:space="preserve">
<style type="text/css">
	.st0{fill:#8E54E9;}
</style>
<g>
	<g>
		<g>
			<path class="st0" d="M114.9,102.2c-0.8,0-1.5-0.7-1.5-1.5v-85c0-0.8,0.7-1.5,1.5-1.5s1.5,0.7,1.5,1.5v85
				C116.4,101.5,115.7,102.2,114.9,102.2z"/>
			<path class="st0" d="M114.9,3H1.5C0.7,3,0,2.3,0,1.5S0.7,0,1.5,0h113.4c0.8,0,1.5,0.7,1.5,1.5S115.7,3,114.9,3z"/>
			<path class="st0" d="M1.5,102.2c-0.8,0-1.5-0.7-1.5-1.5v-85c0-0.8,0.7-1.5,1.5-1.5S3,14.8,3,15.7v85C3,101.5,2.3,102.2,1.5,102.2
				z"/>
			<path class="st0" d="M114.9,116.4H1.5c-0.8,0-1.5-0.7-1.5-1.5c0-0.8,0.7-1.5,1.5-1.5h113.4c0.8,0,1.5,0.7,1.5,1.5
				C116.4,115.7,115.7,116.4,114.9,116.4z"/>
		</g>
		<g>
			<path class="st0" d="M228.3,102.2c-0.8,0-1.5-0.7-1.5-1.5v-85c0-0.8,0.7-1.5,1.5-1.5s1.5,0.7,1.5,1.5v85
				C229.8,101.5,229.1,102.2,228.3,102.2z"/>
			<path class="st0" d="M228.3,3H114.9c-0.8,0-1.5-0.7-1.5-1.5s0.7-1.5,1.5-1.5h113.4c0.8,0,1.5,0.7,1.5,1.5S229.1,3,228.3,3z"/>
			<path class="st0" d="M228.3,116.4H114.9c-0.8,0-1.5-0.7-1.5-1.5c0-0.8,0.7-1.5,1.5-1.5h113.4c0.8,0,1.5,0.7,1.5,1.5
				C229.8,115.7,229.1,116.4,228.3,116.4z"/>
		</g>
		<g>
			<path class="st0" d="M341.7,102.2c-0.8,0-1.5-0.7-1.5-1.5v-85c0-0.8,0.7-1.5,1.5-1.5s1.5,0.7,1.5,1.5v85
				C343.2,101.5,342.5,102.2,341.7,102.2z"/>
			<path class="st0" d="M341.7,3H228.3c-0.8,0-1.5-0.7-1.5-1.5s0.7-1.5,1.5-1.5h113.4c0.8,0,1.5,0.7,1.5,1.5S342.5,3,341.7,3z"/>
			<path class="st0" d="M341.7,116.4H228.3c-0.8,0-1.5-0.7-1.5-1.5c0-0.8,0.7-1.5,1.5-1.5h113.4c0.8,0,1.5,0.7,1.5,1.5
				C343.2,115.7,342.5,116.4,341.7,116.4z"/>
		</g>
		<g>
			<path class="st0" d="M455,102.2c-0.8,0-1.5-0.7-1.5-1.5v-85c0-0.8,0.7-1.5,1.5-1.5s1.5,0.7,1.5,1.5v85
				C456.5,101.5,455.9,102.2,455,102.2z"/>
			<path class="st0" d="M455,3H341.7c-0.8,0-1.5-0.7-1.5-1.5s0.7-1.5,1.5-1.5H455c0.8,0,1.5,0.7,1.5,1.5S455.9,3,455,3z"/>
			<path class="st0" d="M455,116.4H341.7c-0.8,0-1.5-0.7-1.5-1.5c0-0.8,0.7-1.5,1.5-1.5H455c0.8,0,1.5,0.7,1.5,1.5
				C456.5,115.7,455.9,116.4,455,116.4z"/>
		</g>
	</g>
	<g>
		<path class="st0" d="M87.8,73.9h-6.4V42.4h6.4c2.2,0,4-1,5.2-2.7c0.9-1.3,1.3-2.8,1.3-4.6c0-1.7-0.4-3.3-1.3-4.6
			c-1.2-1.8-3-2.7-5.2-2.7H28.7c-2.3,0-4.1,1-5.3,2.7c-0.9,1.3-1.3,2.8-1.3,4.6c0,1.7,0.4,3.3,1.3,4.6c1.2,1.8,3.1,2.7,5.3,2.7h6.2
			v31.6h-6.3c-2.3,0-4.1,1-5.3,2.7C22.5,78,22,79.5,22,81.2c0,1.7,0.4,3.3,1.3,4.6c1.2,1.8,3.1,2.7,5.3,2.7h59.1c2.2,0,4-1,5.2-2.7
			c0.9-1.3,1.3-2.8,1.3-4.6c0-1.7-0.4-3.3-1.3-4.6C91.8,74.9,89.9,73.9,87.8,73.9z M66.8,73.9H49.5V42.4h17.3V73.9z"/>
		<path class="st0" d="M203.8,38.5c0-3.7-0.8-6.1-2.8-8c-1.8-1.7-3.6-2.7-7.5-2.7h-47.6c-2.3,0-4.1,1-5.3,2.7
			c-0.9,1.3-1.3,2.8-1.3,4.5c0,1.8,0.4,3.2,1.3,4.5c1.2,1.8,3.1,2.7,5.3,2.7h43.4v7.1h-42.5c-2.4,0-4.3,0.8-5.6,2.3
			c-1.2,1.4-1.8,3.1-1.8,5s0.6,3.6,1.8,5c1.3,1.5,3.2,2.3,5.6,2.3h32.7l-8.3,8.3c0,0-0.1,0.1-0.1,0.1l-3.8,3.8
			c-1.6,1.6-2.2,3.6-1.8,5.7c0.3,1.5,1.1,2.9,2.3,4.2c1.2,1.2,2.6,2,4.2,2.3c0.4,0.1,0.8,0.1,1.2,0.1c1.2,0,2.9-0.3,4.5-2L201,63.1
			c1.8-1.8,2.9-4.3,2.9-6.9L203.8,38.5z"/>
		<path class="st0" d="M285,25c2.2,0,4.5,0.2,6.7,0.7c15.4,3.1,26.5,16.8,26.5,32.5c0,18.3-14.9,33.2-33.2,33.2
			c-18.3,0-33.2-14.9-33.2-33.2c0-14.6,9.4-27.4,23.4-31.7C278.4,25.5,281.7,25,285,25 M285,76.9c10.4,0,18.8-8.4,18.8-18.8
			c0-8.8-6.2-16.5-14.8-18.4c-1.3-0.3-2.6-0.4-3.9-0.4c-2,0-3.9,0.3-5.8,0.9c-7.8,2.5-13,9.7-13,17.9
			C266.2,68.5,274.7,76.9,285,76.9 M285,22c-3.7,0-7.3,0.5-10.7,1.6c-15.2,4.7-25.5,18.6-25.5,34.6c0,20,16.2,36.2,36.2,36.2
			c20,0,36.2-16.2,36.2-36.2c0-17.1-12.2-32-28.9-35.4C289.9,22.2,287.5,22,285,22L285,22z M285,73.9c-8.7,0-15.8-7.1-15.8-15.8
			c0-6.9,4.4-12.9,10.9-15c1.6-0.5,3.2-0.8,4.8-0.8c1.1,0,2.2,0.1,3.3,0.3c7.2,1.6,12.5,8,12.5,15.4C300.8,66.9,293.7,73.9,285,73.9
			L285,73.9z"/>
		<path class="st0" d="M432.2,32.3c-0.7-1.4-1.9-2.5-3.4-3.3c-1.3-0.7-2.6-1-3.9-1c-0.2,0-0.5,0-0.7,0c-2.1,0.2-3.8,1.4-4.8,3.3
			l-21,39.3l-20.8-39.4c-1-1.9-2.7-3.1-4.8-3.3c-0.3,0-0.5,0-0.8,0c-1.3,0-2.6,0.3-3.9,1c-1.5,0.8-2.7,1.9-3.4,3.3
			c-1,1.8-1,3.9,0,5.9l23.9,43.7c1.8,3.3,4.3,6.8,9.8,6.8c6.2,0,8.7-4.6,9.9-6.8l24-43.5C433.2,36.2,433.2,34.1,432.2,32.3z"/>
	</g>
</g>
</svg>
